<svg xmlns="http://www.w3.org/2000/svg" viewBox="0 0 512 512">
  <!-- Outer star/badge shape -->
  <path d="M256 16 L316 76 L396 56 L416 136 L496 156 L476 236 L512 316 L452 356 L432 436 L352 416 L272 456 L256 396 L240 456 L160 416 L80 436 L60 356 L0 316 L36 236 L16 156 L96 136 L116 56 L196 76 Z" 
        fill="#FF6B6B" stroke="#2D3436" stroke-width="16"/>
  
  <!-- Main circular body -->
  <circle cx="256" cy="256" r="140" fill="#FFD93D" stroke="#2D3436" stroke-width="16"/>
  
  <!-- Horizontal band background -->
  <rect x="76" y="236" width="360" height="40" fill="#6BCF7F" stroke="#2D3436" stroke-width="16"/>
  
  <!-- Turquoise side elements -->
  <rect x="76" y="236" width="60" height="40" fill="#4ECDC4" stroke="#2D3436" stroke-width="16"/>
  <rect x="376" y="236" width="60" height="40" fill="#4ECDC4" stroke="#2D3436" stroke-width="16"/>
  
  <!-- Center band -->
  <rect x="136" y="236" width="240" height="40" fill="#C7E9B4" stroke="#2D3436" stroke-width="16"/>
  
  <!-- Center button -->
  <circle cx="256" cy="256" r="32" fill="#FF6B6B" stroke="#2D3436" stroke-width="16"/>
</svg>